<?xml version="1.0" encoding="UTF-8" standalone="no"?>
<!-- Created with Inkscape (http://www.inkscape.org/) -->

<svg
   version="1.1"
   id="svg1"
   width="67.611008"
   height="113.24072"
   viewBox="0 0 67.611008 113.24072"
   sodipodi:docname="logo-120.png"
   inkscape:export-filename="GutenbergLogo_1.svg"
   inkscape:export-xdpi="96"
   inkscape:export-ydpi="96"
   xmlns:inkscape="http://www.inkscape.org/namespaces/inkscape"
   xmlns:sodipodi="http://sodipodi.sourceforge.net/DTD/sodipodi-0.dtd"
   xmlns="http://www.w3.org/2000/svg"
   xmlns:svg="http://www.w3.org/2000/svg">
  <defs
     id="defs1" />
  <sodipodi:namedview
     id="namedview1"
     pagecolor="#ffffff"
     bordercolor="#000000"
     borderopacity="0.25"
     inkscape:showpageshadow="2"
     inkscape:pageopacity="0.0"
     inkscape:pagecheckerboard="0"
     inkscape:deskcolor="#d1d1d1">
    <inkscape:page
       x="0"
       y="0"
       width="67.611008"
       height="113.24072"
       id="page2"
       margin="0"
       bleed="0" />
  </sodipodi:namedview>
  <g
     inkscape:groupmode="layer"
     inkscape:label="Image"
     id="g1"
     transform="translate(-23.96141,-3.0923591)">
    <path
       style="fill:#ffffff"
       d="m 51.395847,112.61226 -3.45848,-3.82813 -0.68826,-5.85601 C 46.870565,99.707309 46.185494,96.592462 45.726729,96.006238 44.246113,94.114266 43.700203,83.252445 44.837992,78.323274 l 1.10565,-4.789937 -1.367189,-1.647361 c -1.503546,-1.811662 -1.995349,-3.433442 -2.409493,-7.945598 -0.151444,-1.65 -0.08048,-1.97987 0.157703,-0.733045 0.238181,1.246825 0.852431,2.007767 1.364998,1.690983 0.512568,-0.316785 0.951694,0.238086 0.975835,1.233045 0.02414,0.994959 0.630289,3.450487 1.346996,5.456727 0.764909,2.14117 0.956748,4.266613 0.464491,5.146228 -0.557287,0.995818 -0.338227,1.690534 0.653003,2.070905 0.876906,0.3365 1.491617,1.845976 1.491617,3.662789 0,1.805624 0.415732,2.833466 1,2.472368 0.55,-0.339919 1,0.05697 1,0.881966 0,0.825 -0.45,1.778115 -1,2.118034 -1.467559,0.907002 -1.241664,4.747221 0.25,4.25 0.6875,-0.229167 1.30625,-0.941667 1.375,-1.583333 0.06875,-0.641667 0.188141,-1.729167 0.265313,-2.416667 0.105241,-0.937563 0.355191,-0.910877 1,0.106763 0.627699,0.990638 1.052369,1.044997 1.573715,0.201441 0.534493,-0.864827 1.087965,-0.84498 2.201215,0.07894 l 1.487188,1.234256 0.882144,-1.427339 c 0.522041,-0.84468 0.490928,-1.818554 -0.07622,-2.385698 -1.583097,-1.583097 -1.119183,-2.425208 2.291637,-4.159855 4.35193,-2.213262 4.24771,-1.98997 2.30948,-4.948084 -0.9413,-1.436598 -1.47754,-3.221568 -1.19164,-3.966601 0.2859,-0.745032 0.0107,-1.524302 -0.61151,-1.731711 -0.68082,-0.226945 -0.26024,-1.248189 1.05618,-2.564612 1.20312,-1.203125 2.19439,-2.75 2.20281,-3.4375 0.0106,-0.863568 0.24244,-0.910327 0.75,-0.151254 1.49858,2.241163 4.23469,1.179611 4.23469,-1.642968 0,-3.496776 -2.22754,-5.29615 -5.89079,-4.758498 l -2.90911,0.426966 1.47658,-2.253558 c 0.81213,-1.239456 2.22961,-2.4686 3.14995,-2.73143 0.92035,-0.26283 -0.35163,-0.401685 -2.82663,-0.308566 l -4.500002,0.169308 -0.05909,2 c -0.08142,2.755595 -1.825951,6.53947 -4.335206,9.40301 -1.158138,1.321655 -2.105704,2.954055 -2.105704,3.627555 0,2.01788 -2.6808,3.794928 -3.565481,2.363485 -0.471383,-0.762714 -0.320957,-0.941899 0.410973,-0.489542 0.688803,0.425704 1.154508,0.06858 1.154508,-0.885329 0,-0.87937 0.917019,-3.396361 2.037821,-5.593314 1.120801,-2.196952 1.769243,-4.429025 1.440983,-4.960161 -0.328261,-0.531137 -0.174874,-0.965704 0.340859,-0.965704 0.912554,0 3.832704,-5.932874 3.478807,-7.067898 -0.09739,-0.312344 1.145616,-0.373769 2.762231,-0.136501 1.750881,0.256976 2.939301,-0.01881 2.939301,-0.682102 0,-0.612424 -0.7875,-1.145127 -1.75,-1.183784 l -1.750002,-0.07029 2.000002,-0.794922 2,-0.794923 -2,-0.568144 c -1.1,-0.312479 -0.33664,-0.498999 1.69636,-0.414489 4.9504,0.205786 5.13014,-0.138962 3.74445,-7.182272 -1.37607,-6.994416 -0.71561,-8.49972 4.15686,-9.474212 7.95096,-1.590189 0.68173,-6.596686 -9.59767,-6.610144 -13.960813,-0.01828 -17.996717,2.335313 -19.012504,11.087397 l -0.691723,5.959934 2.849134,5.716175 c 1.567024,3.143896 3.412974,6.310818 4.102113,7.037604 0.689138,0.726785 1.252978,1.990843 1.252978,2.809017 0,0.818173 0.45,1.209473 1,0.869554 1.715565,-1.060278 1.094303,1.797621 -1.504185,6.919478 l -2.495815,4.919478 v -2.502811 c 0,-1.376547 0.298226,-2.801038 0.662724,-3.165536 3.102045,-3.102044 -0.557102,-11.695571 -4.356742,-10.231831 l -1.805982,0.695721 1.733284,0.973086 1.733284,0.973086 -1.223831,1.959664 c -0.673107,1.077816 -1.493145,1.959665 -1.822307,1.959665 -1.064106,0 -0.400752,-6.716321 0.807098,-8.171691 0.92394,-1.113279 0.762278,-1.665837 -0.766745,-2.620728 -1.138589,-0.71106 -2.199963,-2.851134 -2.573949,-5.189917 -0.350027,-2.188949 -1.255258,-4.493502 -2.011623,-5.12123 -1.718214,-1.42599 -1.8155,0.209818 -0.125211,2.105338 l 1.25,1.401772 -1.795509,-1.361986 c -0.98753,-0.749092 -1.600089,-1.871241 -1.361243,-2.493664 0.707109,-1.842698 -2.073282,-4.865467 -3.848679,-4.184184 -1.477859,0.567108 -5.925316,-2.502209 -6.043726,-4.170949 -0.02704,-0.381018 -0.387838,-1.683136 -0.801783,-2.893595 -1.357226,-3.968809 1.994467,-12.100938 5.35094,-12.982853 2.078631,-0.546162 6,-2.785222 6,-3.425937 0,-6.8265616 27.831742,-10.1537349 33.406562,-3.9936219 0.9483,1.0478544 3.22411,2.1865789 5.05736,2.5304985 4.38081,0.821845 8.1432,3.8712624 9.00298,7.2969144 0.38042,1.51569 1.13208,3.027993 1.67037,3.360673 1.60996,0.99501 -0.22707,5.998955 -2.59909,7.079715 -1.54127,0.702254 -2.20485,1.884476 -2.20485,3.928162 0,1.60796 -0.9216,3.9324 -2.04801,5.165423 -3.42167,3.745554 -3.47897,8.415159 -0.19012,15.494528 1.59764,3.438968 2.9048,6.842249 2.9048,7.562847 0,0.720598 1.20213,3.756897 2.67141,6.747332 1.46927,2.990434 3.01609,7.462153 3.43736,9.937153 1.44852,8.510112 2.61833,12.966255 3.7673,14.350681 2.77067,3.338443 -0.33424,22.454951 -3.45276,21.258261 -0.78405,-0.30086 -1.42331,0.0413 -1.42331,0.76193 0,1.47978 -4.69987,3.93265 -5.998,3.13037 -0.46647,-0.2883 -1.14977,-1.89755 -1.51845,-3.57613 l -0.67032,-3.05195 -1.25397,1.71491 c -0.86142,1.17806 -1.47276,1.36091 -1.95286,0.58409 -0.86746,-1.40357 1.04795,-5.17216 2.62878,-5.17216 0.83175,0 0.80245,-0.35742 -0.1025,-1.25 l -1.26732,-1.25 -1.39191,2 c -1.64053,2.35723 -1.60053,2.31879 -7.78427,7.48263 -5.21483,4.35474 -5.74228,4.56427 -7.376314,2.93024 -0.782843,-0.78285 -1.275194,-0.78285 -1.759017,0 -1.100184,1.78013 -2.140978,1.28653 -5.779607,-2.74099 z m 3.809089,-16.171882 c 0.779167,0 1.416667,-0.353571 1.416667,-0.785714 0,-0.432143 -0.9,-0.785715 -2,-0.785715 -1.370883,0 -1.975166,0.640351 -1.921053,2.035715 0.04342,1.119643 0.305921,1.473214 0.583334,0.785714 0.277412,-0.6875 1.141886,-1.25 1.921052,-1.25 z m 9.416669,0.606989 c 0,-0.766156 -0.675,-1.652033 -1.5,-1.968615 -0.92992,-0.356845 -1.5,0.005 -1.5,0.952028 0,0.840197 0.45,1.249517 1,0.909598 0.55,-0.339919 1,-0.141476 1,0.440983 0,0.582459 0.225,1.059017 0.5,1.059017 0.275,0 0.5,-0.626855 0.5,-1.393011 z m 11,0.893011 c 0,-0.275 -0.225,-0.5 -0.5,-0.5 -0.275,0 -0.5,0.225 -0.5,0.5 0,0.275 0.225,0.5 0.5,0.5 0.275,0 0.5,-0.225 0.5,-0.5 z m 5.60417,-7.229167 c -1.01652,-1.016515 -1.85525,0.513892 -1.02122,1.863382 l 0.78322,1.267277 0.42108,-1.263246 c 0.23159,-0.694785 0.14921,-1.535121 -0.18308,-1.867413 z m -5.33399,-0.196015 c 0.35318,-1.350553 0.0895,-1.766339 -0.88337,-1.393011 -1.5013,0.576103 -1.77774,1.593934 -0.72014,2.651526 0.95264,0.952643 1.04404,0.880905 1.60351,-1.258515 z M 47.621603,89.940378 c 0,-0.275 -0.225,-0.5 -0.5,-0.5 -0.275,0 -0.5,0.225 -0.5,0.5 0,0.275 0.225,0.5 0.5,0.5 0.275,0 0.5,-0.225 0.5,-0.5 z m 15.666672,-1.166667 c -0.36667,-0.366666 -0.66667,-0.06667 -0.66667,0.666667 0,0.733333 0.3,1.033333 0.66667,0.666667 0.36666,-0.366667 0.36666,-0.966667 0,-1.333334 z m -15.895176,-5.89517 c -0.3352,-0.335201 -1.148481,0.441585 -1.807291,1.726191 l -1.197835,2.335646 1.807291,-1.72619 c 0.99401,-0.949405 1.533036,-2.000446 1.197835,-2.335647 z m 33.895176,1.89517 c -0.36667,-0.366666 -0.66667,-0.06667 -0.66667,0.666667 0,0.733333 0.3,1.033333 0.66667,0.666667 0.36666,-0.366667 0.36666,-0.966667 0,-1.333334 z m -6.46051,-2.619585 c -0.17234,-1.005178 0.34448,-1.713748 1.25,-1.713748 0.84911,0 1.56414,-0.5625 1.58894,-1.25 0.0248,-0.6875 0.66326,0.1 1.41878,1.75 1.08669,2.37323 1.39385,2.582153 1.47021,1 l 0.0965,-2 0.93032,1.47104 c 1.4536,2.298478 2.20931,0.606972 1.06891,-2.392526 -0.56436,-1.484374 -1.47695,-2.420227 -2.02798,-2.079671 -0.55103,0.340555 -1.00187,0.116076 -1.00187,-0.498843 0,-0.614919 -0.45342,-0.837808 -1.00759,-0.49531 -0.6165,0.38102 -0.57871,-0.318551 0.0974,-1.802371 0.86673,-1.902253 0.75886,-3.09435 -0.5003,-5.529296 -2.60315,-5.033952 -5.32444,-2.64901 -4.64308,4.069208 0.11682,1.151891 -0.31815,1.552343 -1.2837,1.181826 -1.95395,-0.749801 -2.9893,1.138493 -2.24664,4.097482 0.40314,1.606239 1.10032,2.21754 2.09414,1.836176 1.65471,-0.634971 2.06685,1.16762 0.48981,2.142285 -1.6615,1.026864 -1.1221,2.671736 0.75,2.287072 1.00705,-0.20692 1.62525,-1.087136 1.45616,-2.073324 z m -7.20616,-13.213748 c 0,-0.275 -0.225,-0.5 -0.5,-0.5 -0.275,0 -0.5,0.225 -0.5,0.5 0,0.275 0.225,0.5 0.5,0.5 0.275,0 0.5,-0.225 0.5,-0.5 z m 8.66228,-8.75 c -0.27741,-0.6875 -0.50439,-0.125 -0.50439,1.25 0,1.375 0.22698,1.9375 0.50439,1.25 0.27741,-0.6875 0.27741,-1.8125 0,-2.5 z m -1.36397,-3.717241 c -0.54528,-2.085176 -3.29831,-4.904475 -3.29831,-3.37771 0,0.939487 2.85437,5.344951 3.46308,5.344951 0.19232,0 0.11818,-0.885258 -0.16477,-1.967241 z m -7.85257,-5.944974 c 0.31008,-0.501719 -0.10033,-0.814744 -0.91203,-0.695611 -2.14123,0.314265 -3.15446,1.607826 -1.2594,1.607826 0.88421,0 1.86136,-0.410497 2.17143,-0.912215 z m 6.91095,-6.225939 0.63449,-5.638154 -1.74559,0.138154 c -1.30116,0.10298 -1.67055,-0.498349 -1.45084,-2.361846 0.21615,-1.833333 0.0431,-2.127809 -0.64908,-1.104283 -0.52222,0.772259 -1.66928,1.117332 -2.56789,0.772506 -1.27974,-0.491085 -1.43664,-0.256967 -0.74003,1.104282 0.48622,0.950122 1.1524,3.470808 1.4804,5.601523 0.48802,3.170213 3.44088,8.355984 4.20349,7.382103 0.11031,-0.140872 0.48608,-2.7933 0.83505,-5.894285 z M 38.804936,34.223711 c -0.717562,-0.717562 -1.183333,-0.776604 -1.183333,-0.15 0,0.568334 0.3,1.333334 0.666667,1.7 0.366666,0.366667 0.899166,0.434167 1.183333,0.15 0.284167,-0.284166 -0.01583,-1.049166 -0.666667,-1.7 z m 34.932839,-2.063817 c -0.42743,-0.429266 -1.86592,-0.350311 -3.19666,0.175457 l -2.41951,0.95594 3.19665,-0.175456 c 1.75816,-0.0965 2.84694,-0.526675 2.41952,-0.955941 z M 39.330818,22.159035 c 0.917827,0.352203 2.120157,-0.132405 2.868858,-1.156315 0.708871,-0.96944 1.768798,-1.465998 2.355392,-1.103463 0.586594,0.362535 1.066535,0.127497 1.066535,-0.522307 0,-0.880425 0.3822,-0.864264 1.5,0.06343 1.036363,0.860104 1.5,0.897951 1.5,0.122445 0,-0.617345 1.2375,-1.142742 2.75,-1.167549 1.5125,-0.02481 4.093694,-0.618026 5.735988,-1.318265 l 2.985984,-1.273161 2.38844,1.239135 c 2.51621,1.305424 5.13959,0.88073 5.13959,-0.832039 0,-0.575919 -0.66306,-0.465167 -1.53186,0.25587 l -1.53185,1.271326 1.09746,-2.886545 1.09747,-2.886545 -2.23042,-1.806082 c -1.22673,-0.9933464 -2.86806,-1.5613971 -3.6474,-1.2623364 -0.77934,0.29906 -2.167673,0.550637 -3.085189,0.559059 l -1.668213,0.01531 1.5,0.9693744 c 1.089966,0.70439 1.142172,0.97356 0.190983,0.984687 -0.719959,0.0084 -1.030902,0.465313 -0.690983,1.015313 0.907775,1.468811 -0.424903,1.217954 -2.02381,-0.380952 -0.759523,-0.759524 -1.139282,-1.622622 -0.843908,-1.917996 0.295374,-0.2953744 -1.413555,-0.3490684 -3.797619,-0.119319 -7.711914,0.743185 -8.341685,0.99196 -8.216801,3.245833 0.06482,1.169925 -0.256263,1.895915 -0.713526,1.61331 -1.163366,-0.718999 -5.108924,3.419077 -4.381794,4.595599 0.327521,0.529939 0.133057,0.963525 -0.43214,0.963525 -0.565198,0 -0.734171,0.764747 -0.375497,1.699438 0.37353,0.973404 0.814944,1.211015 1.033223,0.556178 0.209598,-0.628794 1.092087,-0.870426 1.961087,-0.536959 z m 0.290785,-5.218657 c 0,-0.275 0.225,-0.5 0.5,-0.5 0.275,0 0.5,0.225 0.5,0.5 0,0.275 -0.225,0.5 -0.5,0.5 -0.275,0 -0.5,-0.225 -0.5,-0.5 z m 20,-3 c 0,-0.275 0.225002,-0.5 0.500002,-0.5 0.275,0 0.5,0.225 0.5,0.5 0,0.275 -0.225,0.5 -0.5,0.5 -0.275,0 -0.500002,-0.225 -0.500002,-0.5 z m 16.666672,3.833333 c -0.36667,-0.366666 -0.66667,-0.06667 -0.66667,0.666667 0,0.733333 0.3,1.033333 0.66667,0.666667 0.36666,-0.366667 0.36666,-0.966667 0,-1.333334 z m -2.66667,0.166667 c 0,-0.275 -0.225,-0.5 -0.5,-0.5 -0.275,0 -0.5,0.225 -0.5,0.5 0,0.275 0.225,0.5 0.5,0.5 0.275,0 0.5,-0.225 0.5,-0.5 z m -2,-2 c 0,-0.825 -0.43588,-1.5 -0.96862,-1.5 -0.53274,0 -0.70959,0.675 -0.39301,1.5 0.31658,0.825 0.75246,1.5 0.96862,1.5 0.21615,0 0.39301,-0.675 0.39301,-1.5 z m 2.68311,-1.6875 c -0.31922,-0.797733 -0.55618,-0.560776 -0.60416,0.604167 -0.0434,1.054166 0.19292,1.644791 0.52522,1.3125 0.33229,-0.332292 0.36781,-1.194792 0.079,-1.916667 z m -21.667799,69.4375 c -0.0084,-1.2375 0.434687,-2.25 0.984687,-2.25 1.252922,0 1.252922,1.061241 0,3 l -0.969374,1.5 z m 2.984687,1.25 c 0,-0.275 0.225,-0.5 0.5,-0.5 0.275,0 0.5,0.225 0.5,0.5 0,0.275 -0.225,0.5 -0.5,0.5 -0.275,0 -0.5,-0.225 -0.5,-0.5 z m 3,-12 c 0,-0.275 0.225,-0.5 0.5,-0.5 0.275,0 0.5,0.225 0.5,0.5 0,0.275 -0.225,0.5 -0.5,0.5 -0.275,0 -0.5,-0.225 -0.5,-0.5 z m -3,-2 c 0,-0.275 0.225,-0.5 0.5,-0.5 0.275,0 0.5,0.225 0.5,0.5 0,0.275 -0.225,0.5 -0.5,0.5 -0.275,0 -0.5,-0.225 -0.5,-0.5 z m 4,-4 c 0,-0.275 0.225002,-0.5 0.500002,-0.5 0.275,0 0.5,0.225 0.5,0.5 0,0.275 -0.225,0.5 -0.5,0.5 -0.275,0 -0.500002,-0.225 -0.500002,-0.5 z m -20,-11 c 0,-0.275 0.225,-0.5 0.5,-0.5 0.275,0 0.5,0.225 0.5,0.5 0,0.275 -0.225,0.5 -0.5,0.5 -0.275,0 -0.5,-0.225 -0.5,-0.5 z m 15,-4 c 0,-0.275 0.225,-0.5 0.5,-0.5 0.275,0 0.5,0.225 0.5,0.5 0,0.275 -0.225,0.5 -0.5,0.5 -0.275,0 -0.5,-0.225 -0.5,-0.5 z m 1.75,-14.162281 c 0.6875,-0.277412 1.243109,-1.254386 1.234687,-2.171052 -0.0101,-1.099748 -0.266284,-1.272233 -0.753136,-0.507085 -0.405802,0.637771 -1.981172,1.087771 -3.500821,1 l -2.762997,-0.159582 1.707263,-1.25 c 0.938995,-0.6875 2.296255,-1.25 3.016134,-1.25 1.931051,0 1.59132,-1.77954 -0.44113,-2.310674 -0.9625,-0.251528 -0.130981,-0.509524 1.84782,-0.573325 l 3.597822,-0.116001 0.0853,3.000602 c 0.0791,2.782227 -2.071521,5.152112 -4.465215,4.920451 -0.448653,-0.04342 -0.253237,-0.305921 0.434263,-0.583334 z m 3.25,-1.837719 c 0,-0.275 -0.225,-0.5 -0.5,-0.5 -0.275,0 -0.5,0.225 -0.5,0.5 0,0.275 0.225,0.5 0.5,0.5 0.275,0 0.5,-0.225 0.5,-0.5 z m -9,-5 c 0,-0.275 0.225,-0.5 0.5,-0.5 0.275,0 0.5,0.225 0.5,0.5 0,0.275 -0.225,0.5 -0.5,0.5 -0.275,0 -0.5,-0.225 -0.5,-0.5 z"
       id="path2" />
  </g>
</svg>
